  <svg viewBox="0 0 154 106" id="logo" xmlns="http://www.w3.org/2000/svg">
    <g transform="translate(-8.000000, -2.000000)">
      <g transform="translate(11.000000, 5.000000)">
        <path
          d="M101.295 0H52.7046C23.5967 0 0 23.5966 0 52.7045C0 81.8124 23.5967 105.409 52.7046 105.409H101.295C130.403 105.409 154 81.8124 154 52.7045C154 23.5966 130.403 0 101.295 0Z"
          fill="none"
        />
        <path
          d="M38.4531 35.9289H28.5331V74.5849H22.1971V35.9289H12.3411V30.3609H38.4531V35.9289ZM66.8821 74.5849H44.8021V41.3689L50.3701 35.9289H44.0341V30.3609H66.8821V35.9289H51.1381V51.6729L55.8101 46.9369H66.8821V52.4409H51.1381V69.0169H66.8821V74.5849ZM112.717 74.5209H106.381V39.8969L110.349 35.9929H105.165L96.6526 52.4409H92.0446L83.8526 35.9929H78.7326L82.7006 39.8969V74.5209H76.3646V30.3609H87.6926L94.2846 44.8889H95.0526L101.773 30.3609H112.717V74.5209ZM131.701 74.5849H125.365V30.3609H131.701V74.5849Z"
          fill="currentColor"
        />
        <path
          d="M11.8269 21.3912L142.951 23.3358"
          stroke="currentColor"
          stroke-width="5"
        />
        <path
          d="M11.8269 21.3912L142.951 23.3358"
          stroke="currentColor"
          stroke-opacity="0.2"
          stroke-width="5"
        />
        <path
          d="M10.2842 79.7308L141.408 81.6755"
          stroke="currentColor"
          stroke-width="5"
        />
        <path
          d="M10.2842 79.7308L141.408 81.6755"
          stroke="currentColor"
          stroke-opacity="0.2"
          stroke-width="5"
        />
        <defs>
          <clipPath id="clip0_1_15">
            <rect width="154" height="106" fill="currentColor" />
          </clipPath>
        </defs>
      </g>
    </g>
  </svg>